<?xml version="1.0" encoding="iso-8859-1"?>
<!-- Generator: Adobe Illustrator 18.1.1, SVG Export Plug-In . SVG Version: 6.00 Build 0)  -->
<svg xmlns="http://www.w3.org/2000/svg" xmlns:xlink="http://www.w3.org/1999/xlink" version="1.1" id="Capa_1" x="0px" y="0px" viewBox="0 0 16.927 16.927" style="enable-background:new 0 0 16.927 16.927;" xml:space="preserve" width="350px" height="350px">
<g>
	<g>
		<path d="M16.693,2.721c-0.312-0.312-0.815-0.312-1.127,0L14.107,4.18c-0.149,0.149-0.233,0.353-0.233,0.564    v8.729H3.266V4.775c0-0.211-0.084-0.414-0.233-0.564L1.361,2.539c-0.311-0.311-0.816-0.312-1.128,0    c-0.311,0.311-0.311,0.816,0,1.127l1.438,1.439v9.165c0,0.442,0.357,0.798,0.797,0.798H14.67c0.44,0,0.798-0.355,0.798-0.798    V5.074l1.225-1.226C17.005,3.537,17.005,3.033,16.693,2.721z" fill="#006DF0"/>
		<path d="M8.206,6.981c0.629,0.65,1.484,1.287,2.511,1.285c1.028,0.003,1.857-0.695,2.279-1.473    c-0.626,0.638-1.464,1.062-2.258,0.976C9.94,7.681,9.249,7.156,8.661,6.536c-0.331-0.331-0.7-0.639-1.13-0.868    C7.102,5.446,6.609,5.294,6.111,5.32C5.095,5.354,4.274,6.027,3.826,6.794c0.645-0.62,1.479-1.034,2.279-0.978    C6.909,5.874,7.621,6.373,8.206,6.981z" fill="#006DF0"/>
		<circle cx="7.552" cy="2.815" r="0.809" fill="#006DF0"/>
		<circle cx="9.703" cy="3.786" r="0.333" fill="#006DF0"/>
		<circle cx="10.987" cy="2.191" r="0.332" fill="#006DF0"/>
		<path d="M10.205,10.857c0,0.434,0.351,0.782,0.782,0.782s0.782-0.349,0.782-0.782    c0-0.432-0.351-0.782-0.782-0.782S10.205,10.425,10.205,10.857z M11.451,10.857c0,0.257-0.209,0.465-0.464,0.465    s-0.464-0.208-0.464-0.465c0-0.255,0.209-0.463,0.464-0.463S11.451,10.602,11.451,10.857z" fill="#006DF0"/>
		<path d="M5.024,9.421c0,0.65,0.53,1.183,1.181,1.183c0.65,0,1.181-0.532,1.181-1.183    c0-0.649-0.53-1.181-1.181-1.181S5.024,8.772,5.024,9.421z M7.067,9.421c0,0.477-0.387,0.863-0.861,0.863    c-0.476,0-0.863-0.387-0.863-0.863c0-0.474,0.387-0.86,0.863-0.86C6.68,8.561,7.067,8.947,7.067,9.421z" fill="#006DF0"/>
	</g>
</g>
<g>
</g>
<g>
</g>
<g>
</g>
<g>
</g>
<g>
</g>
<g>
</g>
<g>
</g>
<g>
</g>
<g>
</g>
<g>
</g>
<g>
</g>
<g>
</g>
<g>
</g>
<g>
</g>
<g>
</g>
</svg>
