<?xml version="1.0" encoding="iso-8859-1"?>
<!-- Generator: Adobe Illustrator 19.1.0, SVG Export Plug-In . SVG Version: 6.00 Build 0)  -->
<svg version="1.1" id="Capa_1" xmlns="http://www.w3.org/2000/svg" xmlns:xlink="http://www.w3.org/1999/xlink" x="0px" y="0px"
	 viewBox="0 0 64 64" style="enable-background:new 0 0 64 64;" xml:space="preserve">
<g>
	<g id="group-25svg">
		<path id="path-1_16_" d="M32.111,64C32.11,64,32.11,64,32.111,64c-0.497,0-1.001-0.274-1.498-0.322
			c-5.007-0.485-9.3-3.453-11.777-7.927c-2.577-4.653-2.698-10.333-0.325-15.089c1.261-2.526,3.136-4.404,5.714-5.589V2.5
			c0-1.378,1.122-2.5,2.5-2.5h11c1.379,0,2.5,1.122,2.5,2.5v33.162c4.56,2.474,6.962,6.871,6.962,12.776
			c0,4.023-1.569,8.056-4.419,10.901C39.92,62.184,36.135,64,32.111,64z M27.225,3v33.073c0,0.625-0.388,1.185-0.973,1.404
			c-2.375,0.892-3.982,2.309-5.056,4.461c-1.933,3.873-1.834,8.446,0.265,12.235c1.991,3.597,5.432,5.881,9.441,6.269
			c0.407,0.04,0.81,0.059,1.208,0.059h0.001c3.224,0,6.255-1.255,8.537-3.534c2.282-2.279,3.539-5.308,3.539-8.529
			c0-5.088-2.05-8.618-6.092-10.491c-0.53-0.245-0.87-0.776-0.87-1.361V3H27.225z"/>
		<path id="path-2_16_" d="M17.813,8.126c0-1.1,0.892-1.992,1.992-1.992s1.992,0.892,1.992,1.992c0,1.101-0.892,1.992-1.992,1.992
			S17.813,9.227,17.813,8.126z"/>
		<path id="path-3_15_" d="M17.813,14.767c0-1.101,0.892-1.992,1.992-1.992s1.992,0.891,1.992,1.992c0,1.1-0.892,1.992-1.992,1.992
			S17.813,15.867,17.813,14.767z"/>
		<path id="path-4_13_" d="M17.813,21.408c0-1.1,0.892-1.993,1.992-1.993s1.992,0.893,1.992,1.993c0,1.1-0.892,1.992-1.992,1.992
			S17.813,22.508,17.813,21.408z"/>
		<path id="path-5_11_" d="M17.813,28.049c0-1.101,0.892-1.992,1.992-1.992s1.992,0.891,1.992,1.992c0,1.1-0.892,1.992-1.992,1.992
			S17.813,29.149,17.813,28.049z"/>
		<path id="path-6_10_" style="fill:#E56A77;" d="M34.225,40.98V7h-4v33.98c-5,1.119-5.99,4.332-5.99,8.126
			c0,4.723,3.781,8.551,8.504,8.551s7.966-3.828,7.966-8.551C40.705,45.312,39.225,42.099,34.225,40.98z"/>
	</g>
</g>
<g>
</g>
<g>
</g>
<g>
</g>
<g>
</g>
<g>
</g>
<g>
</g>
<g>
</g>
<g>
</g>
<g>
</g>
<g>
</g>
<g>
</g>
<g>
</g>
<g>
</g>
<g>
</g>
<g>
</g>
</svg>
